<svg xmlns="http://www.w3.org/2000/svg" width="15" height="15" fill="none"><path fill="#000" fill-rule="evenodd" d="M7.514.056C3.38.056.027 3.465.027 7.67c0 3.364 2.145 6.218 5.12 7.225.374.07.511-.165.511-.366 0-.182-.007-.781-.01-1.418-2.082.46-2.522-.898-2.522-.898-.34-.88-.831-1.114-.831-1.114-.68-.473.051-.463.051-.463.752.054 1.148.785 1.148.785.667 1.164 1.75.827 2.178.633.067-.492.261-.829.475-1.019-1.662-.192-3.41-.845-3.41-3.763 0-.83.292-1.51.771-2.043-.078-.192-.334-.966.073-2.015 0 0 .628-.205 2.059.78a7.063 7.063 0 0 1 1.874-.256 7.08 7.08 0 0 1 1.875.256c1.429-.985 2.056-.78 2.056-.78.408 1.049.152 1.823.074 2.015.48.533.77 1.212.77 2.043 0 2.925-1.75 3.569-3.418 3.757.269.237.508.7.508 1.41 0 1.019-.009 1.839-.009 2.09 0 .202.135.44.514.365C12.857 13.886 15 11.034 15 7.67 15 3.465 11.648.056 7.514.056Z" clip-rule="evenodd"/><path fill="#000" fill-rule="evenodd" d="M2.863 10.988c-.017.038-.075.05-.129.023-.054-.024-.084-.076-.067-.114.016-.039.075-.05.13-.024.054.025.085.077.066.115ZM3.166 11.332c-.036.034-.106.018-.153-.035-.049-.053-.058-.124-.022-.158.037-.034.105-.018.154.035.049.054.058.124.021.158ZM3.461 11.77c-.046.033-.12.003-.167-.065-.046-.068-.046-.149 0-.181.047-.033.121-.004.168.064.046.068.046.15 0 .183ZM3.866 12.194c-.042.046-.129.034-.193-.029-.065-.061-.084-.148-.042-.194.041-.046.129-.034.194.029.064.061.084.149.04.194ZM4.423 12.44c-.018.06-.102.087-.187.062-.084-.026-.14-.096-.123-.157.018-.06.102-.088.188-.06.084.025.14.095.122.155ZM5.036 12.486c.002.063-.07.115-.159.116-.09.002-.162-.049-.163-.11 0-.064.07-.116.16-.117.09-.002.162.049.162.111ZM5.606 12.387c.01.061-.051.124-.14.141-.086.016-.167-.021-.178-.082-.01-.063.052-.126.14-.142.088-.016.167.021.178.083Z" clip-rule="evenodd"/><path fill="#fff" d="M7.644 12.542c.698 0 3.462-3.135 3.462-5.237 0-2.012-1.572-3.68-3.462-3.68-1.989 0-3.561 1.668-3.561 3.68 0 2.102 2.764 5.237 3.561 5.237Z"/><path fill="#3D5C5B" d="M7.655 9.217c1.12 0 2.077-.947 2.077-2.055 0-1.23-.958-2.177-2.077-2.177-1.242 0-2.199.947-2.199 2.177 0 1.108.957 2.055 2.2 2.055Z"/><path fill="#fff" d="M6.76 6.648c.463 0 .84-.372.84-.832a.836.836 0 0 0-.84-.83.836.836 0 0 0-.84.83c0 .46.376.832.84.832Z"/></svg>