<svg xmlns="http://www.w3.org/2000/svg" width="15" height="15" fill="none"><path fill="#4285F4" d="M.955 13.877h2.227V8.082L0 5.525v7.33c0 .565.427 1.022.955 1.022Z"/><path fill="#34A853" d="M10.818 13.878h2.227c.528 0 .955-.458.955-1.023v-7.33l-3.182 2.557v5.796Z"/><path fill="#FBBC04" d="M10.818 3.65v4.432L14 5.525V4.162c0-1.264-1.347-1.986-2.29-1.228l-.892.716Z"/><path fill="#EA4335" fill-rule="evenodd" d="M3.182 8.082V3.65L7 6.72l3.818-3.069v4.432L7 11.15 3.182 8.082Z" clip-rule="evenodd"/><path fill="#C5221F" d="M0 4.162v1.363l3.182 2.557V3.65l-.891-.716C1.347 2.176 0 2.898 0 4.162Z"/></svg>