<svg width="148" height="37" viewBox="0 0 148 37" fill="none" xmlns="http://www.w3.org/2000/svg">
<ellipse rx="17.1526" ry="17.9881" transform="matrix(1 0.000119295 0.000113754 1 75.4639 18.0036)" fill="#3D5C5B"/>
<path d="M88.9093 23.9135H88.8093H62.4093H62.3093V24.0135C62.3093 24.0135 62.7093 26.5135 65.8093 26.5135H85.5093C88.6093 26.5135 89.0093 24.1135 89.0093 24.0135C88.9093 24.0135 88.9093 24.0135 88.9093 23.9135ZM77.5093 25.7134H73.5093V24.8135H77.5093V25.7134Z" fill="white"/>
<path d="M65.1093 22.9135H86.0093C86.3093 22.9135 86.5093 22.7135 86.5093 22.4135V9.51349C86.5093 9.21349 86.3093 9.01349 86.0093 9.01349H65.1093C64.8093 9.01349 64.6093 9.21349 64.6093 9.51349V22.4135C64.5093 22.7135 64.8093 22.9135 65.1093 22.9135ZM66.5093 10.9135H84.7093V21.0135H66.5093V10.9135Z" fill="white"/>
<ellipse rx="17.1526" ry="17.9881" transform="matrix(1 0.000119295 0.000113754 1 17.4639 18.0034)" fill="#3D5C5B"/>
<ellipse rx="17.1526" ry="17.9881" transform="matrix(1 0.000119295 0.000113754 1 130.464 18.0036)" fill="#3D5C5B"/>
<path fill-rule="evenodd" clip-rule="evenodd" d="M136.232 8.06084C135.289 8.37419 134.727 9.25793 134.871 10.203C134.97 10.8517 135.359 11.3787 135.953 11.6657C136.266 11.8173 136.29 11.8218 136.77 11.8218C137.251 11.8218 137.275 11.8173 137.588 11.6657C138.171 11.3836 138.565 10.8587 138.671 10.2197C138.81 9.38977 138.366 8.55419 137.588 8.18068C137.293 8.03891 137.229 8.02476 136.835 8.0147C136.564 8.00776 136.341 8.02489 136.232 8.06084ZM130.337 8.98985C130.017 9.07478 129.788 9.2802 127.921 11.1606C126.101 12.993 125.973 13.1323 125.887 13.3663C125.837 13.5037 125.796 13.702 125.796 13.807C125.796 14.2357 126.115 14.7558 126.505 14.965C126.758 15.1007 127.42 15.1003 127.669 14.9642C127.763 14.9125 128.499 14.2086 129.304 13.4C130.108 12.5914 130.781 11.9297 130.799 11.9297C130.817 11.9297 131.036 12.0782 131.285 12.2597L131.739 12.5897L132.479 11.8556C132.967 11.3726 133.306 11.0732 133.471 10.9802C133.675 10.865 133.711 10.829 133.664 10.7851C133.545 10.6724 131.361 9.17563 131.185 9.08583C130.983 8.9829 130.548 8.9337 130.337 8.98985ZM121.111 9.94354C120.781 10.0242 120.571 10.308 120.604 10.6292C120.626 10.8491 120.734 11.0106 120.938 11.1314C121.078 11.2139 121.162 11.2177 122.87 11.2177C124.579 11.2177 124.662 11.2139 124.802 11.1314C125.038 10.9922 125.129 10.8351 125.129 10.5703C125.129 10.3056 125.038 10.1485 124.802 10.0093C124.663 9.92732 124.571 9.92261 122.956 9.91549C122.021 9.91135 121.191 9.92399 121.111 9.94354ZM134.615 11.8912C134.507 11.9073 134.342 11.96 134.249 12.0084C134.149 12.0608 132.965 13.2185 131.321 14.8721C128.706 17.501 128.556 17.6611 128.469 17.8976C128.354 18.214 128.354 18.4631 128.47 18.7791C128.554 19.0111 128.672 19.1405 130.127 20.6048C130.988 21.4716 131.692 22.1995 131.692 22.2225C131.692 22.2454 130.842 23.119 129.804 24.1637C128.035 25.9424 127.909 26.0791 127.824 26.313C127.774 26.4504 127.733 26.6487 127.733 26.7537C127.733 27.1824 128.051 27.7025 128.441 27.9116C128.694 28.0473 129.356 28.0469 129.605 27.911C129.703 27.8578 130.834 26.7538 132.215 25.3649C134.515 23.0505 134.657 22.8988 134.743 22.6631C134.858 22.3468 134.858 22.0977 134.743 21.7816C134.658 21.5496 134.541 21.4202 133.086 19.9559C132.225 19.0891 131.52 18.3607 131.52 18.3372C131.52 18.3138 131.973 17.8405 132.527 17.2856L133.534 16.2768L133.55 16.8112C133.57 17.4229 133.646 17.657 133.921 17.9428C134.13 18.1595 134.332 18.2601 134.667 18.3147C135.035 18.3745 139.84 18.3745 140.208 18.3147C140.543 18.2601 140.745 18.1595 140.953 17.9428C141.54 17.3331 141.378 16.2813 140.638 15.8982C140.357 15.7525 139.983 15.7281 138.029 15.7278L136.125 15.7274V14.3514C136.125 12.7688 136.109 12.6691 135.793 12.3174C135.493 11.9824 135.059 11.8252 134.615 11.8912ZM119.82 12.5329C119.49 12.6136 119.28 12.8973 119.313 13.2185C119.335 13.4384 119.442 13.5999 119.647 13.7207C119.787 13.8033 119.87 13.807 121.579 13.807C123.288 13.807 123.371 13.8033 123.511 13.7207C123.747 13.5815 123.838 13.4244 123.838 13.1597C123.838 12.8949 123.747 12.7378 123.511 12.5987C123.372 12.5167 123.28 12.512 121.665 12.5048C120.73 12.5007 119.9 12.5133 119.82 12.5329ZM121.111 15.1222C120.781 15.2029 120.571 15.4866 120.604 15.8079C120.626 16.0278 120.734 16.1893 120.938 16.31C121.078 16.3926 121.162 16.3963 122.87 16.3963C124.579 16.3963 124.662 16.3926 124.802 16.31C125.038 16.1709 125.129 16.0138 125.129 15.749C125.129 15.4843 125.038 15.3272 124.802 15.188C124.663 15.106 124.571 15.1013 122.956 15.0942C122.021 15.09 121.191 15.1027 121.111 15.1222ZM123.66 22.5568C120.334 25.8966 120.164 26.0751 120.078 26.313C120.028 26.4504 119.987 26.6487 119.987 26.7537C119.987 27.1824 120.305 27.7025 120.695 27.9116C120.948 28.0474 121.61 28.0469 121.859 27.9109C121.957 27.857 123.464 26.378 125.385 24.4504L128.739 21.0839L128.155 20.4818C127.663 19.9743 127.543 19.8239 127.394 19.5248C127.296 19.3296 127.217 19.143 127.217 19.1101C127.217 19.0773 127.202 19.0504 127.184 19.0504C127.166 19.0504 125.58 20.6283 123.66 22.5568Z" fill="white"/>
<path d="M24.0322 9.96694L10.8941 9.96537C10.6037 9.96534 10.3252 10.0863 10.1199 10.3016C9.91462 10.5169 9.79931 10.8089 9.79934 11.1134L9.80091 24.8915C9.80094 25.196 9.91632 25.4881 10.1217 25.7034C10.327 25.9188 10.6055 26.0398 10.8959 26.0398L24.034 26.0414C24.3244 26.0414 24.6029 25.9205 24.8082 25.7052C25.0135 25.4899 25.1288 25.1979 25.1287 24.8933L25.1272 11.1152C25.1271 10.8107 25.0118 10.5187 24.8064 10.3033C24.6011 10.088 24.3226 9.96697 24.0322 9.96694V9.96694ZM24.0339 24.8932L10.8958 24.8916L10.8942 11.1135L24.0323 11.1151L24.0339 24.8932Z" fill="white"/>
<path d="M15.6033 20.9138C15.7032 20.9817 15.8178 21.022 15.9364 21.0311C16.0551 21.0401 16.174 21.0176 16.2822 20.9655L21.0609 18.6698C21.1858 18.6107 21.2917 18.5151 21.366 18.3944C21.4403 18.2738 21.4798 18.1332 21.4798 17.9895C21.4798 17.8459 21.4403 17.7053 21.3659 17.5846C21.2916 17.4639 21.1856 17.3683 21.0607 17.3092L16.2815 15.0123C16.1719 14.9597 16.0514 14.9373 15.9313 14.9469C15.8112 14.9566 15.6953 14.998 15.5947 15.0674C15.494 15.1368 15.4118 15.2319 15.3558 15.3437C15.2998 15.4556 15.2717 15.5805 15.2743 15.7068L15.2748 20.2995C15.2767 20.4224 15.3076 20.5429 15.365 20.6502C15.4224 20.7574 15.5043 20.848 15.6033 20.9138V20.9138ZM16.1502 15.9767L20.3711 18.0037L16.1507 20.0183L16.1502 15.9767Z" fill="white"/>
<path d="M11.9892 11.6877L13.084 11.6879L13.0842 13.4102L11.9894 13.4101L11.9892 11.6877Z" fill="white"/>
<path d="M15.274 11.6882L16.3689 11.6883L16.3691 13.4106L15.2742 13.4104L15.274 11.6882Z" fill="white"/>
<path d="M18.5588 11.6886L19.6537 11.6887L19.6539 13.411L18.559 13.4109L18.5588 11.6886Z" fill="white"/>
<path d="M21.8428 11.689L22.9377 11.6891L22.9379 13.4114L21.843 13.4112L21.8428 11.689Z" fill="white"/>
<path d="M11.9907 22.5954L13.0855 22.5956L13.0857 24.3178L11.9909 24.3177L11.9907 22.5954Z" fill="white"/>
<path d="M15.2756 22.5958L16.3704 22.5959L16.3706 24.3182L15.2757 24.3181L15.2756 22.5958Z" fill="white"/>
<path d="M18.5595 22.5962L19.6544 22.5963L19.6546 24.3186L18.5597 24.3185L18.5595 22.5962Z" fill="white"/>
<path d="M21.8444 22.5966L22.9392 22.5967L22.9394 24.319L21.8446 24.3188L21.8444 22.5966Z" fill="white"/>
</svg>
