<svg width="35" height="36" viewBox="0 0 35 36" fill="none" xmlns="http://www.w3.org/2000/svg">
<ellipse rx="17.1526" ry="17.9881" transform="matrix(1 0.000119295 0.000113754 1 17.1546 17.9902)" fill="#3D5C5B"/>
<path d="M9.80773 17.9893C9.80749 15.9465 10.5811 13.9875 11.9583 12.5432C13.3355 11.0989 15.2035 10.2876 17.1515 10.2878C19.0994 10.2881 20.9676 11.0998 22.3451 12.5444C23.7227 13.9891 24.4967 15.9483 24.4969 17.9911L24.4971 19.0914L20.8248 19.091C20.6856 19.091 20.5522 19.1489 20.4538 19.2521C20.3554 19.3552 20.3002 19.4952 20.3002 19.6411L20.301 26.2431C20.301 26.389 20.3563 26.529 20.4547 26.6321C20.5531 26.7353 20.6865 26.7933 20.8256 26.7933L23.4487 26.7936C24.0053 26.7937 24.539 26.5619 24.9325 26.1493C25.326 25.7366 25.547 25.1769 25.5469 24.5932L25.5462 17.9912C25.5459 15.6566 24.6613 13.4175 23.087 11.7665C21.5126 10.1154 19.3775 9.18776 17.1513 9.18749C14.9251 9.18723 12.7902 10.1144 11.2163 11.765C9.64233 13.4157 8.75823 15.6546 8.7585 17.9892L8.75925 24.5912C8.75931 25.1749 8.98046 25.7346 9.37405 26.1474C9.76763 26.5602 10.3014 26.7921 10.858 26.7921L13.481 26.7925C13.6202 26.7925 13.7536 26.7345 13.852 26.6314C13.9503 26.5282 14.0056 26.3883 14.0056 26.2423L14.0048 19.6403C14.0048 19.4944 13.9495 19.3545 13.8511 19.2513C13.7527 19.1481 13.6193 19.0901 13.4802 19.0901L9.80785 19.0897L9.80773 17.9893Z" fill="white"/>
</svg>
