<svg width="35" height="36" viewBox="0 0 35 36" fill="none" xmlns="http://www.w3.org/2000/svg">
<ellipse rx="17.1526" ry="17.9881" transform="matrix(1 0.000119295 0.000113754 1 17.7732 17.9902)" fill="#3D5C5B"/>
<path d="M14.5781 16.8331C14.7222 16.6333 14.9965 16.5517 15.2552 16.5065C15.4913 16.5342 15.7084 16.6027 15.908 16.7121C16.1875 16.9921 16.2552 17.4063 15.9965 17.7169C15.7587 18.1456 15.3455 18.6561 14.6875 18.5015C14.4757 18.4198 14.2952 18.2944 14.1354 18.1544C13.9011 17.6717 14.2674 17.2181 14.5781 16.8331Z" fill="white"/>
<path d="M12.724 19.496C12.9202 19.184 13.375 19.0979 13.7587 19.1869C13.8577 19.2292 14.0539 19.3108 14.1528 19.3517C14.2431 19.5865 14.4653 19.8387 14.3091 20.0896C14.0608 20.619 13.6198 21.3204 12.7865 21.0871C12.7136 21.0375 12.6407 20.9894 12.5695 20.9398C11.9723 20.5577 12.375 19.8985 12.724 19.496Z" fill="white"/>
<path d="M16.3091 9.37958C17.1233 9.18125 18.0209 9.33 18.8698 9.29646C19.6719 9.28625 20.2743 9.98187 20 10.6235C19.7952 11.2185 18.8334 11.4956 18.2431 11.115C17.6042 10.73 16.9827 10.3246 16.3559 9.92792C16.1007 9.84625 16.0573 9.46417 16.3091 9.37958Z" fill="white"/>
<path d="M20.3334 11.9171C20.9202 11.9273 21.5226 11.8631 22.1007 11.9608C22.8178 12.0746 22.8455 13.0648 22.1459 13.2135C21.3855 13.3652 20.915 12.7162 20.3264 12.4392C20.0278 12.3677 19.9792 11.9185 20.3334 11.9171Z" fill="white"/>
<path d="M8.28127 13.9763C10.6459 13.0954 13.0035 12.2029 15.3733 11.3352C15.8281 11.1748 16.3108 11.3425 16.6754 11.5802C20.9011 13.9544 25.1372 16.314 29.3611 18.6896C29.3854 18.7479 29.4341 18.8646 29.4601 18.9229C29.3716 19.6492 29.4879 20.3769 29.408 21.1046C28.7448 21.1148 27.9965 21.1513 27.4827 20.7298C26.6736 20.2019 27.4479 19.216 26.8785 18.5992C26.6893 18.5 26.4167 18.4665 26.2361 18.5963C24.9531 19.3633 23.6441 20.0998 22.349 20.8523C21.8073 21.1892 20.9653 21.2096 20.4705 20.7983C19.7483 20.3025 20.3056 19.4348 19.9879 18.7946C19.9358 18.5277 19.5643 18.5058 19.3091 18.5204C19.2396 17.4865 19.3125 16.4496 19.2691 15.4156C18.0712 14.7535 16.8768 14.0856 15.6893 13.409C13.882 13.8479 12.1181 14.4108 10.3212 14.8848C10.0972 14.949 9.82468 14.9927 9.70836 15.1896C9.22572 15.805 8.76044 16.4306 8.27433 17.0446C8.14412 17.2283 7.8403 17.1656 7.63891 17.1219C7.4219 16.4729 7.66322 15.8035 7.54863 15.1444C7.49308 14.6777 7.72398 14.1498 8.28127 13.9763Z" fill="white"/>
<path d="M11.6268 20.7254C12.8907 19.0585 13.9879 17.3042 15.198 15.6096C15.3125 15.6679 15.5417 15.7817 15.6563 15.8385C15.5764 16.0821 15.4132 16.295 15.2552 16.5065C14.9966 16.5517 14.7223 16.6333 14.5782 16.8331C14.2674 17.2181 13.9011 17.6717 14.1355 18.1544C13.9445 18.4344 13.7587 18.7188 13.6302 19.0235C13.6632 19.0644 13.7257 19.146 13.7587 19.1869C13.375 19.0979 12.9202 19.184 12.724 19.496C12.375 19.8985 11.9723 20.5577 12.5695 20.9398C12.2223 20.9996 11.908 20.8844 11.6268 20.7254Z" fill="white"/>
<path d="M16.2865 16.1404C17.6025 16.6698 18.4445 17.8962 18.2848 19.1212C18.1702 20.1654 17.3421 21.125 16.1945 21.5362C15.1216 21.9446 13.8177 21.8469 12.8403 21.3L12.7865 21.0871C13.6198 21.3204 14.0608 20.619 14.3091 20.0896C14.4653 19.8387 14.2431 19.5865 14.1528 19.3517C14.3195 19.0629 14.5 18.78 14.6875 18.5015C15.3455 18.656 15.7587 18.1456 15.9966 17.7169C16.2552 17.4062 16.1875 16.9921 15.908 16.7121C16.0348 16.521 16.1615 16.33 16.2865 16.1404Z" fill="white"/>
<path d="M11.4063 15.7408C12.5052 15.0875 14.0382 15.0394 15.1979 15.6096C13.9879 17.3042 12.8906 19.0586 11.6268 20.7254C11.1198 20.4658 10.6893 20.11 10.3837 19.6813C9.44794 18.3979 9.91843 16.5765 11.4063 15.7408Z" fill="white"/>
<path d="M15.6563 15.8385C15.8664 15.9406 16.0764 16.0412 16.2865 16.1404C16.1615 16.33 16.0348 16.521 15.908 16.7121C15.7084 16.6027 15.4914 16.5342 15.2552 16.5064C15.4132 16.295 15.5764 16.0821 15.6563 15.8385Z" fill="white"/>
<path d="M13.6302 19.0236C13.7587 18.7188 13.9445 18.4344 14.1355 18.1544C14.2952 18.2944 14.4757 18.4198 14.6875 18.5015C14.5 18.78 14.3195 19.0629 14.1528 19.3517C14.0539 19.3108 13.8577 19.2292 13.7587 19.1869C13.7257 19.1461 13.6632 19.0644 13.6302 19.0236Z" fill="white"/>
<path d="M18.2848 19.1213C18.6476 18.9492 18.9809 18.7363 19.3091 18.5204C19.5643 18.5058 19.9358 18.5277 19.9879 18.7946C20.3056 19.4348 19.7483 20.3025 20.4705 20.7983C20.9653 21.2096 21.8073 21.1892 22.349 20.8523C23.6441 20.0998 24.9532 19.3633 26.2362 18.5963C26.4167 18.4665 26.6893 18.5 26.8785 18.5992C27.448 19.2161 26.6737 20.2019 27.4827 20.7298C27.9966 21.1513 28.7448 21.1148 29.408 21.1046C29.4896 21.8906 29.4028 22.6825 29.4671 23.4715L29.4028 23.5065C28.8334 23.7952 28.3334 24.1977 27.6962 24.38C26.948 24.5331 26.25 23.9411 26.3195 23.3198C26.2014 22.8429 26.5296 22.1604 25.9237 21.8615C25.5504 21.6471 25.1303 21.8688 24.8195 22.0554C23.7049 22.7263 22.566 23.3665 21.4497 24.0358C21.1858 24.1861 20.908 24.3363 20.5886 24.3888C20.0105 24.4675 19.3976 24.0956 19.316 23.6056C19.2518 23.1419 19.3438 22.6694 19.2518 22.2086C19.0869 21.8177 18.441 21.6296 18.0521 21.914C16.7414 22.6504 15.4671 23.4379 14.158 24.1788C13.6841 24.4821 12.9445 24.4821 12.5539 24.0752C11.9254 23.4729 12.6372 22.5133 11.9775 21.9286C11.5643 21.6033 11.033 21.8746 10.6667 22.1079C9.66324 22.7292 8.599 23.279 7.61636 23.9221C7.47921 23.6319 7.56254 23.3198 7.57122 23.0208C7.63546 22.3865 7.45838 21.7492 7.60595 21.1192C8.66845 20.8756 9.45317 20.1465 10.3837 19.6813C10.6893 20.11 11.1198 20.4658 11.6268 20.7254C11.908 20.8844 12.2223 20.9996 12.5695 20.9398C12.6407 20.9894 12.7136 21.0375 12.7865 21.0871L12.8403 21.3C13.8178 21.8469 15.1216 21.9446 16.1945 21.5363C17.3421 21.125 18.1702 20.1654 18.2848 19.1213Z" fill="white"/>
</svg>
