<svg xmlns="http://www.w3.org/2000/svg" width="15" height="16" fill="none"><path fill="#34A4C6" d="M7.5 15.625a7.5 7.5 0 1 0 0-15 7.5 7.5 0 0 0 0 15Z"/><path fill="#fff" d="M7.644 12.542c.698 0 3.462-3.135 3.462-5.237 0-2.012-1.572-3.68-3.462-3.68-1.989 0-3.561 1.668-3.561 3.68 0 2.102 2.764 5.237 3.561 5.237Z"/><path fill="#3D5C5B" d="M7.655 9.217c1.12 0 2.077-.947 2.077-2.055 0-1.23-.958-2.177-2.077-2.177-1.242 0-2.199.947-2.199 2.177 0 1.108.957 2.055 2.2 2.055Z"/><path fill="#fff" d="M6.76 6.648c.463 0 .84-.372.84-.832a.836.836 0 0 0-.84-.83.836.836 0 0 0-.84.83c0 .46.376.832.84.832Z"/></svg>